<mxfile host="app.diagrams.net" agent="Mozilla/5.0 (Windows NT 10.0; Win64; x64) AppleWebKit/537.36 (KHTML, like Gecko) Chrome/131.0.0.0 Safari/537.36" version="26.0.4">
  <diagram name="Page-1" id="02GBHCSqRYqD3W00q6uA">
    <mxGraphModel dx="1588" dy="824" grid="1" gridSize="10" guides="1" tooltips="1" connect="1" arrows="1" fold="1" page="1" pageScale="1" pageWidth="827" pageHeight="1169" math="0" shadow="0">
      <root>
        <mxCell id="0" />
        <mxCell id="1" parent="0" />
        <mxCell id="_PUN6bJPJMbmrDFHcsqb-7" style="edgeStyle=orthogonalEdgeStyle;rounded=0;hachureGap=4;orthogonalLoop=1;jettySize=auto;html=1;exitX=0.5;exitY=1;exitDx=0;exitDy=0;entryX=0.5;entryY=0;entryDx=0;entryDy=0;fontFamily=Architects Daughter;fontSource=https%3A%2F%2Ffonts.googleapis.com%2Fcss%3Ffamily%3DArchitects%2BDaughter;" edge="1" parent="1" source="_PUN6bJPJMbmrDFHcsqb-1" target="_PUN6bJPJMbmrDFHcsqb-2">
          <mxGeometry relative="1" as="geometry" />
        </mxCell>
        <mxCell id="_PUN6bJPJMbmrDFHcsqb-1" value="" style="ellipse;whiteSpace=wrap;html=1;hachureGap=4;fontFamily=Architects Daughter;fontSource=https%3A%2F%2Ffonts.googleapis.com%2Fcss%3Ffamily%3DArchitects%2BDaughter;" vertex="1" parent="1">
          <mxGeometry x="360" y="130" width="170" height="90" as="geometry" />
        </mxCell>
        <mxCell id="_PUN6bJPJMbmrDFHcsqb-8" style="edgeStyle=orthogonalEdgeStyle;rounded=0;hachureGap=4;orthogonalLoop=1;jettySize=auto;html=1;exitX=0.5;exitY=1;exitDx=0;exitDy=0;fontFamily=Architects Daughter;fontSource=https%3A%2F%2Ffonts.googleapis.com%2Fcss%3Ffamily%3DArchitects%2BDaughter;" edge="1" parent="1" source="_PUN6bJPJMbmrDFHcsqb-2" target="_PUN6bJPJMbmrDFHcsqb-3">
          <mxGeometry relative="1" as="geometry" />
        </mxCell>
        <mxCell id="_PUN6bJPJMbmrDFHcsqb-2" value="" style="rounded=0;whiteSpace=wrap;html=1;hachureGap=4;fontFamily=Architects Daughter;fontSource=https%3A%2F%2Ffonts.googleapis.com%2Fcss%3Ffamily%3DArchitects%2BDaughter;" vertex="1" parent="1">
          <mxGeometry x="365" y="310" width="160" height="90" as="geometry" />
        </mxCell>
        <mxCell id="_PUN6bJPJMbmrDFHcsqb-9" style="edgeStyle=orthogonalEdgeStyle;rounded=0;hachureGap=4;orthogonalLoop=1;jettySize=auto;html=1;exitX=0.5;exitY=1;exitDx=0;exitDy=0;entryX=0.5;entryY=0;entryDx=0;entryDy=0;fontFamily=Architects Daughter;fontSource=https%3A%2F%2Ffonts.googleapis.com%2Fcss%3Ffamily%3DArchitects%2BDaughter;" edge="1" parent="1" source="_PUN6bJPJMbmrDFHcsqb-3" target="_PUN6bJPJMbmrDFHcsqb-4">
          <mxGeometry relative="1" as="geometry" />
        </mxCell>
        <mxCell id="_PUN6bJPJMbmrDFHcsqb-3" value="" style="rounded=0;whiteSpace=wrap;html=1;hachureGap=4;fontFamily=Architects Daughter;fontSource=https%3A%2F%2Ffonts.googleapis.com%2Fcss%3Ffamily%3DArchitects%2BDaughter;" vertex="1" parent="1">
          <mxGeometry x="365" y="495" width="160" height="90" as="geometry" />
        </mxCell>
        <mxCell id="_PUN6bJPJMbmrDFHcsqb-6" style="edgeStyle=orthogonalEdgeStyle;rounded=0;hachureGap=4;orthogonalLoop=1;jettySize=auto;html=1;exitX=1;exitY=0.5;exitDx=0;exitDy=0;entryX=1;entryY=0.5;entryDx=0;entryDy=0;fontFamily=Architects Daughter;fontSource=https%3A%2F%2Ffonts.googleapis.com%2Fcss%3Ffamily%3DArchitects%2BDaughter;" edge="1" parent="1" source="_PUN6bJPJMbmrDFHcsqb-4" target="_PUN6bJPJMbmrDFHcsqb-3">
          <mxGeometry relative="1" as="geometry">
            <Array as="points">
              <mxPoint x="670" y="725" />
              <mxPoint x="670" y="540" />
            </Array>
          </mxGeometry>
        </mxCell>
        <mxCell id="_PUN6bJPJMbmrDFHcsqb-10" style="edgeStyle=orthogonalEdgeStyle;rounded=0;hachureGap=4;orthogonalLoop=1;jettySize=auto;html=1;exitX=0.5;exitY=1;exitDx=0;exitDy=0;entryX=0.5;entryY=0;entryDx=0;entryDy=0;fontFamily=Architects Daughter;fontSource=https%3A%2F%2Ffonts.googleapis.com%2Fcss%3Ffamily%3DArchitects%2BDaughter;" edge="1" parent="1" source="_PUN6bJPJMbmrDFHcsqb-4" target="_PUN6bJPJMbmrDFHcsqb-5">
          <mxGeometry relative="1" as="geometry" />
        </mxCell>
        <mxCell id="_PUN6bJPJMbmrDFHcsqb-4" value="" style="rhombus;whiteSpace=wrap;html=1;hachureGap=4;fontFamily=Architects Daughter;fontSource=https%3A%2F%2Ffonts.googleapis.com%2Fcss%3Ffamily%3DArchitects%2BDaughter;" vertex="1" parent="1">
          <mxGeometry x="355" y="650" width="180" height="150" as="geometry" />
        </mxCell>
        <mxCell id="_PUN6bJPJMbmrDFHcsqb-5" value="" style="ellipse;whiteSpace=wrap;html=1;hachureGap=4;fontFamily=Architects Daughter;fontSource=https%3A%2F%2Ffonts.googleapis.com%2Fcss%3Ffamily%3DArchitects%2BDaughter;" vertex="1" parent="1">
          <mxGeometry x="362.5" y="880" width="165" height="110" as="geometry" />
        </mxCell>
        <mxCell id="_PUN6bJPJMbmrDFHcsqb-11" value="&lt;b&gt;&lt;font style=&quot;font-size: 19px;&quot;&gt;Start&lt;/font&gt;&lt;/b&gt;" style="text;html=1;align=center;verticalAlign=middle;whiteSpace=wrap;rounded=0;fontFamily=Architects Daughter;fontSource=https%3A%2F%2Ffonts.googleapis.com%2Fcss%3Ffamily%3DArchitects%2BDaughter;" vertex="1" parent="1">
          <mxGeometry x="370" y="130" width="150" height="80" as="geometry" />
        </mxCell>
        <mxCell id="_PUN6bJPJMbmrDFHcsqb-12" value="&lt;b&gt;&lt;font style=&quot;font-size: 18px;&quot;&gt;While&lt;/font&gt;&lt;/b&gt;&lt;div&gt;&lt;b&gt;&lt;font style=&quot;font-size: 18px;&quot;&gt;Condition&lt;/font&gt;&lt;/b&gt;&lt;/div&gt;" style="text;html=1;align=center;verticalAlign=middle;whiteSpace=wrap;rounded=0;fontFamily=Architects Daughter;fontSource=https%3A%2F%2Ffonts.googleapis.com%2Fcss%3Ffamily%3DArchitects%2BDaughter;glass=0;" vertex="1" parent="1">
          <mxGeometry x="357.5" y="655" width="170" height="140" as="geometry" />
        </mxCell>
        <mxCell id="_PUN6bJPJMbmrDFHcsqb-13" value="&lt;b&gt;&lt;font style=&quot;font-size: 18px;&quot;&gt;Do&lt;/font&gt;&lt;/b&gt;" style="text;html=1;align=center;verticalAlign=middle;whiteSpace=wrap;rounded=0;fontFamily=Architects Daughter;fontSource=https%3A%2F%2Ffonts.googleapis.com%2Fcss%3Ffamily%3DArchitects%2BDaughter;" vertex="1" parent="1">
          <mxGeometry x="360" y="310" width="170" height="90" as="geometry" />
        </mxCell>
        <mxCell id="_PUN6bJPJMbmrDFHcsqb-14" value="&lt;b&gt;&lt;font style=&quot;font-size: 18px;&quot;&gt;End&lt;/font&gt;&lt;/b&gt;" style="text;html=1;align=center;verticalAlign=middle;whiteSpace=wrap;rounded=0;fontFamily=Architects Daughter;fontSource=https%3A%2F%2Ffonts.googleapis.com%2Fcss%3Ffamily%3DArchitects%2BDaughter;" vertex="1" parent="1">
          <mxGeometry x="370" y="880" width="150" height="110" as="geometry" />
        </mxCell>
        <mxCell id="_PUN6bJPJMbmrDFHcsqb-15" value="&lt;b&gt;&lt;font style=&quot;font-size: 18px;&quot;&gt;Command&lt;/font&gt;&lt;/b&gt;" style="text;html=1;align=center;verticalAlign=middle;whiteSpace=wrap;rounded=0;fontFamily=Architects Daughter;fontSource=https%3A%2F%2Ffonts.googleapis.com%2Fcss%3Ffamily%3DArchitects%2BDaughter;" vertex="1" parent="1">
          <mxGeometry x="370" y="500" width="160" height="80" as="geometry" />
        </mxCell>
        <mxCell id="_PUN6bJPJMbmrDFHcsqb-16" value="&lt;b&gt;&lt;font style=&quot;font-size: 17px;&quot;&gt;False&lt;/font&gt;&lt;/b&gt;" style="text;html=1;align=center;verticalAlign=middle;whiteSpace=wrap;rounded=0;fontFamily=Architects Daughter;fontSource=https%3A%2F%2Ffonts.googleapis.com%2Fcss%3Ffamily%3DArchitects%2BDaughter;" vertex="1" parent="1">
          <mxGeometry x="360" y="820" width="60" height="30" as="geometry" />
        </mxCell>
        <mxCell id="_PUN6bJPJMbmrDFHcsqb-17" value="&lt;span style=&quot;font-size: 14px;&quot;&gt;&lt;b&gt;True&lt;/b&gt;&lt;/span&gt;" style="text;html=1;align=center;verticalAlign=middle;whiteSpace=wrap;rounded=0;fontFamily=Architects Daughter;fontSource=https%3A%2F%2Ffonts.googleapis.com%2Fcss%3Ffamily%3DArchitects%2BDaughter;" vertex="1" parent="1">
          <mxGeometry x="540" y="690" width="60" height="30" as="geometry" />
        </mxCell>
      </root>
    </mxGraphModel>
  </diagram>
</mxfile>
